<?xml version="1.0" encoding="UTF-8"?>
<svg id="Capa_1" data-name="Capa 1" xmlns="http://www.w3.org/2000/svg" viewBox="0 0 384 384">
  <defs>
    <style>
      .cls-1 {
        fill: #fff;
        stroke-width: 0px;
      }
    </style>
  </defs>
  <path class="cls-1" d="m240.75,0c4.11,1.4,8.45,2.35,12.29,4.28,10.79,5.43,17.6,14.23,19.99,26.1,2.02,10.03,4,20.09,5.28,30.24,3,23.75-18.07,42.49-41.48,37.18-11.68-2.65-23.33-5.42-35-8.13-1.08-.25-2.17-.42-3.62-.7-2.34,8.95-4.65,17.73-6.94,26.51-5.02,19.32-10.02,38.65-15.07,57.96-1.44,5.5-5.09,8.36-10.14,8.17-4.52-.18-8.42-3.4-9-8.03-.27-2.14.21-4.47.76-6.61,7.66-29.72,15.39-59.42,23.1-89.13.25-.96.4-1.95.64-2.92,1.53-5.96,7.07-8.89,13.02-7.4,15.85,3.95,31.71,7.89,47.65,11.42,9.65,2.14,18.37-6.41,16.83-16.13-1.48-9.37-3.14-18.71-4.91-28.03-1.89-9.94-10.57-16.28-20.89-15.15-10.55,1.15-21.06,2.63-31.59,3.98-8.42,1.08-16.88,1.93-25.24,3.35-13.28,2.24-24.28,8.81-31.97,19.82-38.13,54.64-74.01,110.67-101.17,171.74-8.55,19.22-15.35,39.23-22.41,59.07-1.56,4.39-1.49,9.67-1,14.42,1.06,10.21,7.62,16.98,16.63,20.47,9.24,3.58,19.01,5.91,28.67,8.28,17.03,4.17,33.55,9.74,49.36,17.29,24.48,11.7,49.99,20.11,76.89,23.98,42,6.04,82.73,1.15,121.85-15.32,11.7-4.92,22.84-11.19,34.16-16.98,6.76-3.45,13.42-.97,15.12,5.87,1.06,4.28-.81,8.27-5.29,10.93-14.41,8.57-29.43,15.87-45.14,21.72-22.61,8.4-45.91,13.61-70,15.17-.97.06-1.93.4-2.89.61h-27c-1.09-.2-2.18-.52-3.28-.59-34.3-2.21-66.87-11.06-97.9-25.64-18.6-8.74-37.74-15.71-57.94-19.7-10.45-2.06-20.63-4.93-29.86-10.5-10.43-6.3-18.04-14.89-21.49-26.79C1.13,298.54.59,296.26,0,294,0,289.75,0,285.5,0,281.25c.67-3.02,1.04-6.14,2.06-9.04,5.36-15.15,10.29-30.49,16.44-45.32,28.71-69.23,68.56-132.11,111.51-193.12,9.11-12.95,22.24-21.43,37.78-24.66,13.77-2.87,27.87-4.12,41.82-6.11C216.49,2.02,223.37,1,230.25,0c3.5,0,7,0,10.5,0Z"/>
  <path class="cls-1" d="m384,192.75c-2.52,5.12-6.57,7.01-12.31,7.23-22.11.83-41.16,9.19-57.21,24.41-4.44,4.22-9.56,4-14.7-.27-15.35-12.74-32.62-21.71-52.35-25.27-25.31-4.57-47.37,2.81-66.81,19.05-14.18,11.85-24.96,26.48-34.41,42.19-3.01,5-6.86,6.79-11.48,5.56-5.89-1.57-9.4-8.03-6.35-13.25,17.63-30.25,39.15-56.63,73.52-68.93,26.74-9.58,52.94-6.26,78.21,5.53,9.34,4.36,18.1,9.97,26.49,14.65,9.39-5.11,18.65-10.75,28.41-15.32,11.89-5.57,24.71-7.64,37.84-7.96,5.51-.14,8.81,2.6,11.14,7.14v5.25Z"/>
  <path class="cls-1" d="m253.35,332.67c-14.36-.1-27.92-2.62-41.14-7.13-6.17-2.11-9.1-7.19-7.28-12.72,1.72-5.25,7.15-7.79,13.15-5.8,14.02,4.64,28.29,7.16,43.1,5.79,20.27-1.88,37.81-9.66,52.06-24.37,2.92-3.02,6.12-4.68,10.35-3.55,7.23,1.93,9.59,10.21,4.43,16.11-7.24,8.28-16.04,14.64-25.71,19.74-15.41,8.13-31.93,11.98-48.96,11.94Z"/>
</svg>