<?xml version="1.0" encoding="UTF-8"?>
<svg id="Capa_1" data-name="Capa 1" xmlns="http://www.w3.org/2000/svg" viewBox="0 0 512 512">
  <defs>
    <style>
      .cls-1 {
        fill: #fff;
        stroke-width: 0px;
      }
    </style>
  </defs>
  <path class="cls-1" d="m240,0c10.67,0,21.33,0,32,0,1.28.29,2.55.74,3.85.83,34.65,2.57,67.35,11.98,98.17,27.99,5.26,2.73,10.4,5.69,15.98,8.75,8.28-8.4,16.27-16.65,24.42-24.73,4.57-4.53,10.13-5.69,16.11-3.32,5.79,2.29,8.84,6.85,9.44,13.01.43,4.47.72,8.96,1.11,13.44.92,10.58,1.86,21.16,2.81,31.98,2.66.33,4.94.7,7.23.89,12.61,1.07,25.22,2.07,37.83,3.14,8.18.7,13.93,6.1,14.59,13.8.44,5.17-1.71,9.32-5.36,12.9-7.94,7.81-15.78,15.71-23.64,23.55.67,1.32,1.07,2.24,1.57,3.08,16.36,27.47,27.18,56.98,32.37,88.51,1.43,8.68,2.36,17.44,3.52,26.16v32c-.28,1.29-.65,2.57-.84,3.87-1.74,11.85-2.84,23.82-5.26,35.52-20.5,99.24-105.39,180.46-205.3,196.66-9.5,1.54-19.07,2.64-28.6,3.95h-32c-1.11-.27-2.21-.63-3.34-.8-11.68-1.71-23.48-2.83-35.04-5.15C102.37,486.19,20.14,400.83,4,301.11,2.44,291.44,1.32,281.71,0,272c0-10.67,0-21.33,0-32,1.63-11.34,2.86-22.76,4.97-34.01C24.07,103.97,109.13,20.76,211.39,3.94,220.88,2.38,230.46,1.3,240,0Zm127.43,59.9C288.1,12.04,161.56,16.49,81.92,111.93,6.68,202.1,12.92,338.7,102.88,422.32c86.8,80.7,223.48,79.48,309.94-3.73,85.67-82.45,83.05-203.18,39.1-273.95-5.09,5.18-10.17,10.22-15.09,15.4-4.24,4.45-9.23,6.09-15.34,5.37-6.81-.8-13.68-1.09-21.06-1.64,51.85,83.28,22.05,180.56-40.87,228.42-61.84,47.03-149.01,46.3-210.88-3.2-61.42-49.14-81.31-134.95-46.98-206.29,22.11-45.94,58.05-76.62,107.15-90.84,48.95-14.18,95.31-6.56,139.48,19.93-.6-7.71-.85-14.37-1.69-20.95-.84-6.53,1.1-11.7,5.83-16.16,5.07-4.78,9.93-9.78,14.98-14.78Zm-23.88,86.29c-44.99-39.22-127.45-46.67-184.72,7.84-57.4,54.63-58.57,144.56-2.86,201.25,54.51,55.46,145.14,55.62,199.89.15,56.39-57.13,50.05-140.55,9.88-187.11-14.08,14.12-28.18,28.26-42.32,42.44,26.43,41.3,11.46,88.07-19.69,110.65-32.6,23.64-77.17,20.05-105.48-8.68-28.05-28.47-31.03-73.31-7.1-105.23,23.86-31.84,70.49-44.44,110.02-18.9,14.17-14.18,28.29-28.3,42.38-42.4Zm-63.96,65.13c-20.32-12.48-49.44-5.77-64.41,14.24-15.79,21.1-12.86,50.66,6.78,68.29,19.85,17.82,49.36,17.46,68.99-.8,18.93-17.61,19.66-45.96,9.68-60.21-1.22,1.14-2.43,2.24-3.59,3.39-9.78,9.77-19.57,19.53-29.32,29.32-4.14,4.16-8.97,6.4-14.87,5.03-5.6-1.3-9.42-4.73-11.1-10.35-1.82-6.08.02-11.16,4.32-15.47,11.04-11.07,22.14-22.09,33.54-33.44ZM412.81,57.91c-.77.16-1.19.12-1.38.3-10.97,10.92-21.95,21.84-32.84,32.84-.83.84-1.57,2.31-1.48,3.42.94,12.39,2.05,24.77,3.13,37.31,12.57,1.08,24.65,2.2,36.75,3.03,1.51.1,3.47-.96,4.62-2.09,10.33-10.15,20.54-20.42,30.75-30.69.72-.72,1.21-1.67,2-2.78-4.53-.43-8.5-.82-12.47-1.17-3.98-.36-7.96-.68-11.94-1.01-8.98-.75-14.25-6.02-15.02-14.97-.68-7.95-1.4-15.9-2.13-24.18Z"/>
</svg>