<?xml version="1.0" encoding="UTF-8"?>
<svg id="Capa_1" data-name="Capa 1" xmlns="http://www.w3.org/2000/svg" viewBox="0 0 384 289.22">
  <defs>
    <style>
      .cls-1 {
        fill: #fff;
        stroke-width: 0px;
      }
    </style>
  </defs>
  <path class="cls-1" d="m0,48.62c1.94-2.83,3.35-6.39,5.96-8.28,2.84-2.06,6.73-3.23,10.29-3.59,5.66-.57,11.41-.15,17.5-.15,0-4.96-.02-9.55,0-14.14C33.83,9.45,42.88.26,55.87.06c5.37-.08,10.75-.09,16.12,0,12.65.22,21.68,9.21,21.87,21.81.1,6.75.05,13.5.01,20.25-.03,4.43-2.11,6.9-5.64,6.85-3.45-.05-5.54-2.62-5.58-7.02-.05-6.25.02-12.5-.02-18.75-.05-8.03-3.92-11.85-12.04-11.9-4.75-.03-9.5-.07-14.25.01-7.3.12-11.34,4.18-11.34,11.5-.02,58-.02,116,0,173.99,0,7.28,4.1,11.39,11.35,11.49,4.5.06,9,.02,13.5.01,9.07-.01,12.78-3.67,12.79-12.66.01-41.62,0-83.25,0-124.87,0-1.25-.07-2.51.09-3.74.44-3.28,2.76-5.28,5.82-5.16,3.1.12,5.19,2.2,5.27,5.63.12,5.09.03,10.18.03,15.47h26.93c0-3.42.12-6.76-.02-10.09-.41-9.48,2.6-17.33,11.12-22.15,8.49-4.81,16.78-3.62,24.84,2.13,3.73-4.8,8.38-8.23,14.45-9.24,6.07-1.01,11.65.35,16.63,3.9,14.57-15.15,27.31-14.81,39.22,1.14,5.41-3.11,11.12-4.68,17.47-3.14,9.29,2.25,16.19,10.18,16.6,19.77.25,5.83.05,11.68.05,17.7h28.97c0-1.46,0-2.79,0-4.12,0-18.5-.02-37,0-55.5.02-14.5,8.87-23.29,23.39-23.33,4.87-.01,9.75-.06,14.62.01,12.99.2,22.03,9.38,22.12,22.39.03,4.59,0,9.18,0,14.13,4.59,0,8.83.3,13.02-.06,9.85-.85,17,2.6,20.73,12.09v122.27c-1.74,2.67-2.94,6.09-5.35,7.83-2.96,2.14-6.84,3.64-10.47,4.05-5.77.65-11.67.17-17.93.17,0,4.93.02,9.52,0,14.1-.08,13.19-9.21,22.37-22.4,22.5-5.37.05-10.75.1-16.12-.01-12.36-.25-21.49-9.35-21.57-21.72-.12-19-.04-38-.04-57,0-1.34,0-2.68,0-4.23h-19.34c0,3.07-.07,6.03.01,8.99.17,6.3-1.96,11.73-5.95,16.53-4.88,5.86-9.8,11.68-14.47,17.7-1.18,1.52-1.87,3.7-2.08,5.65-.34,3.09,0,6.25-.13,9.36-.16,3.65-2.71,6.13-5.88,5.97-3.09-.15-5.24-2.52-5.3-6.09-.08-4.62-.2-9.26.07-13.87.1-1.72.95-3.63,2.03-5,5.43-6.86,11-13.6,16.63-20.3,2.61-3.11,3.93-6.49,3.87-10.61-.14-10.25-.03-20.5-.05-30.75-.01-5.4-2.09-7.55-7.47-7.57-15.25-.05-30.5-.07-45.74,0-6.47.03-10.62,3.93-10.6,9.63.02,5.68,4.2,9.52,10.66,9.58,7.62.07,15.25,0,22.87.03,4.55.01,6.97,1.89,7.06,5.4.09,3.69-2.43,5.83-7.11,5.8-33.24-.19-66.48-.42-99.73-.64-1.48,0-2.97,0-4.74,0-.44,7.53-1.15,14.6,4.81,20.74,5.47,5.63,10.23,11.96,15,18.22,1.39,1.83,2.42,4.46,2.43,6.72.15,33.25.11,66.5.1,99.76,0,4.72-2.04,7.35-5.58,7.35-3.53,0-5.65-2.71-5.65-7.36-.01-31.88-.04-63.75.05-95.63,0-2.82-.76-4.95-2.59-7.06-4.26-4.91-8.09-10.19-12.46-14.99-5.64-6.19-8.29-13.23-7.61-21.57.15-1.86.02-3.73.02-5.9h-19.34c0,1.46,0,2.8,0,4.14,0,18.38.02,36.75,0,55.13-.02,14.81-8.76,23.59-23.48,23.62-4.87,0-9.75.06-14.62-.01-12.74-.19-21.92-9.41-22.02-22.12-.04-4.62,0-9.24,0-14.47-4.57,0-9.04-.32-13.45.07-9.8.85-16.7-2.78-20.3-12.13,0-40.76,0-81.52,0-122.27Zm350.25-.78v4.41c0,25.5,0,51,0,76.5,0,1.12.11,2.27-.08,3.37-.53,3.11-2.39,5-5.59,4.96-3.2-.03-5.04-1.95-5.5-5.07-.18-1.22-.07-2.5-.07-3.74,0-35,0-70,0-105,0-7.97-3.98-11.91-12.01-11.97-4.5-.03-9-.03-13.5,0-8.3.05-12.12,3.86-12.13,12.19-.02,17.75,0,35.5,0,53.25,0,39.75,0,79.5,0,119.25,0,8.51,3.84,12.28,12.39,12.31,4.5.01,9,.03,13.5,0,7.71-.06,11.73-4.1,11.75-11.85.03-13.13,0-26.25.02-39.38,0-4.6,2.2-7.26,5.79-7.14,3.45.11,5.41,2.65,5.44,7.12.03,4.83,0,9.65,0,14.69,5.75,0,10.98.02,16.22,0,4.95-.03,6.27-1.31,6.28-6.18.02-11.25,0-22.5,0-33.75,0-25.88,0-51.75,0-77.63,0-4.92-1.35-6.3-6.14-6.32-5.25-.03-10.49,0-16.35,0ZM33.5,171.71V47.84c-5.35,0-10.45-.01-15.55,0-5.54.01-6.7,1.2-6.7,6.88,0,36.72,0,73.45,0,110.17,0,.75-.04,1.5.02,2.25.2,2.77,1.66,4.48,4.48,4.53,5.85.1,11.69.03,17.76.03Zm60.68-77.26v30.54h91.97c-2.35-6.25-2.33-12.31.49-18.4-14.34,4.29-16.92,3.91-27.93-3.95-14.63,11.15-26.31,8.92-36.38-6.89-.38-.6-1.28-1.24-1.94-1.25-8.7-.08-17.4-.06-26.22-.06Zm123.49-21.59c0-4.49,0-8.98,0-13.46,0-.25,0-.5-.01-.75-.25-6.22-4.39-10.61-10.16-10.76-5.89-.16-10.66,4.22-10.8,10.52-.22,9.72-.09,19.45-.04,29.17,0,1.22.26,2.51.7,3.65,1.14,2.96,2.65,5.31,6.6,4.26,1.76-.46,3.72-.16,5.59-.17,6.15-.01,7.95-1.69,8.09-7.88.11-4.86.02-9.72.03-14.59Zm-32.32,3.37c0-3.74.1-7.48-.02-11.22-.18-5.77-4.28-10.07-9.71-10.39-5.66-.34-10.78,3.55-11.07,9.33-.41,8.2-.4,16.46-.02,24.67.27,5.8,5.35,9.79,10.96,9.49,5.45-.29,9.64-4.58,9.84-10.29.13-3.86.03-7.73.03-11.59Zm64.55.71h-.03c0-3.75.19-7.51-.05-11.24-.33-5.14-4.4-9.03-9.48-9.49-4.97-.44-10.41,2.85-10.77,7.84-.62,8.68-.44,17.44-.09,26.14.14,3.32,2.27,5.7,6.35,5.18,2.21-.28,4.52-.28,6.74,0,5.39.68,6.78-2.3,7.24-6.81.39-3.83.08-7.74.08-11.61Zm-96.86,1.67c0-3.11.11-6.23-.02-9.34-.24-5.65-4.52-9.93-9.97-10.14-5.63-.22-10.57,3.84-10.87,9.59-.33,6.59-.33,13.21,0,19.8.29,5.74,5.28,9.84,10.87,9.6,5.44-.23,9.72-4.53,9.96-10.16.13-3.11.02-6.23.03-9.34Zm136.75,46.32v-30.49c-9.43,0-18.54-.03-27.66.05-.88,0-1.76.67-3.83,1.51,14.78,5.85,12.31,17.94,12.49,28.93h19Z"/>
  <path class="cls-1" d="m248.17,251.52c0,10.35.06,20.71-.02,31.06-.04,4.95-3.98,8.09-7.72,5.96-1.62-.92-3.31-3.4-3.33-5.18-.23-21.33-.18-42.66-.12-63.99,0-3.54,2.33-5.77,5.52-5.77,3.3,0,5.61,2.31,5.64,6.11.09,10.6.03,21.21.03,31.81Z"/>
</svg>